<svg width="19" height="19" viewBox="0 0 19 19" fill="none" xmlns="http://www.w3.org/2000/svg">
<path fill-rule="evenodd" clip-rule="evenodd" d="M12.2432 3.75735C14.5859 6.10049 14.5859 9.8995 12.2432 12.2426C9.89941 14.5858 6.10059 14.5858 3.75781 12.2426C1.41406 9.8995 1.41406 6.10049 3.75781 3.75735C6.10059 1.41421 9.89941 1.41421 12.2432 3.75735ZM14.3193 12.908C16.7637 9.76949 16.542 5.22851 13.6572 2.34313C10.5332 -0.781044 5.46777 -0.781044 2.34375 2.34313C-0.78125 5.46734 -0.78125 10.5326 2.34375 13.6569C5.22852 16.5419 9.76855 16.7627 12.9072 14.3195C12.9209 14.3346 12.9346 14.3494 12.9492 14.3639L17.1924 18.6066C17.582 18.9971 18.2158 18.9971 18.6064 18.6066C18.9971 18.2161 18.9971 17.5829 18.6064 17.1924L14.3633 12.9498C14.3486 12.9353 14.334 12.9214 14.3193 12.908Z" fill="#88888E"/>
</svg>
